<svg xmlns="http://www.w3.org/2000/svg" version="1.1" xmlns:xlink="http://www.w3.org/1999/xlink" xmlns:svgjs="http://svgjs.dev/svgjs" viewBox="0 0 18.121865055834025 16.576344347547103"><g transform="matrix(1,0,0,1,1.4440368980342004,14.046307449512902)"><rect width="18.121865055834025" height="18.121865055834025" x="-1.4440368980341995" y="-14.819067803656365" fill="#f4e7e7"></rect><g><path d=" M 0.18 1.068 L 0.5565 1.068 Q 0.657 1.068 0.726 1.04175 Q 0.795 1.0155 0.837 0.9735 Q 0.879 0.9315 0.89775 0.8782500000000001 Q 0.9165 0.8250000000000001 0.9165 0.7710000000000001 Q 0.9165 0.6855 0.87975 0.6345000000000001 Q 0.843 0.5835000000000001 0.792 0.5565 Q 0.741 0.5295000000000001 0.687 0.5205000000000001 Q 0.633 0.5115000000000001 0.6 0.51 L 0.6 0.504 Q 0.6525 0.504 0.6990000000000001 0.48375 Q 0.7455 0.4635 0.78075 0.43125 Q 0.8160000000000001 0.399 0.837 0.35625000000000007 Q 0.858 0.3135 0.858 0.26550000000000007 Q 0.858 0.22350000000000003 0.84 0.18000000000000005 Q 0.8220000000000001 0.13650000000000007 0.78525 0.10050000000000003 Q 0.7485 0.0645 0.69075 0.04125000000000001 Q 0.633 0.018000000000000016 0.555 0.018000000000000016 L 0.18 0.018000000000000016 L 0.18 1.068 M 0.3165 1.002 L 0.3165 0.543 L 0.4815 0.543 Q 0.555 0.543 0.609 0.5625 Q 0.663 0.5820000000000001 0.69825 0.615 Q 0.7335 0.6480000000000001 0.75075 0.6915 Q 0.768 0.7350000000000001 0.768 0.783 Q 0.768 0.8355 0.74925 0.8760000000000001 Q 0.7305 0.9165000000000001 0.6990000000000001 0.9450000000000001 Q 0.6675 0.9735 0.62475 0.98775 Q 0.582 1.002 0.534 1.002 L 0.3165 1.002 M 0.3165 0.4770000000000001 L 0.3165 0.08400000000000007 L 0.4995 0.08400000000000007 Q 0.558 0.08400000000000007 0.5992500000000001 0.10050000000000003 Q 0.6405 0.11699999999999999 0.6667500000000001 0.14400000000000002 Q 0.6930000000000001 0.17100000000000004 0.705 0.20550000000000002 Q 0.717 0.24 0.717 0.2745000000000001 Q 0.717 0.31800000000000006 0.69975 0.35550000000000004 Q 0.6825 0.393 0.65175 0.42000000000000004 Q 0.621 0.44700000000000006 0.58125 0.4620000000000001 Q 0.5415 0.4770000000000001 0.4965 0.4770000000000001 L 0.3165 0.4770000000000001 M 1.06501611328125 0.543 Q 1.06501611328125 0.627 1.09726611328125 0.7222500000000001 Q 1.12951611328125 0.8175000000000001 1.1985161132812499 0.8985000000000001 Q 1.26751611328125 0.9795 1.3740161132812498 1.03275 Q 1.4805161132812499 1.086 1.62901611328125 1.086 Q 1.72951611328125 1.086 1.81126611328125 1.06125 Q 1.89301611328125 1.0365 1.95826611328125 0.9945 Q 2.02351611328125 0.9525 2.07151611328125 0.89775 Q 2.11951611328125 0.8430000000000001 2.15026611328125 0.7822500000000001 Q 2.18101611328125 0.7215 2.19676611328125 0.66 Q 2.21251611328125 0.5985 2.21251611328125 0.543 Q 2.21251611328125 0.4590000000000001 2.1780161132812497 0.36375 Q 2.14351611328125 0.26850000000000007 2.07151611328125 0.1875 Q 1.99951611328125 0.10650000000000004 1.8892661132812498 0.05325000000000002 Q 1.77901611328125 0 1.62901611328125 0 Q 1.4805161132812499 0 1.3740161132812498 0.05249999999999999 Q 1.26751611328125 0.1050000000000001 1.1985161132812499 0.18525000000000003 Q 1.12951611328125 0.26550000000000007 1.09726611328125 0.36150000000000004 Q 1.06501611328125 0.4575 1.06501611328125 0.543 M 1.21201611328125 0.543 Q 1.21201611328125 0.43800000000000006 1.24426611328125 0.35025000000000006 Q 1.27651611328125 0.26250000000000007 1.33276611328125 0.1995 Q 1.38901611328125 0.13650000000000007 1.46551611328125 0.10125000000000006 Q 1.54201611328125 0.06600000000000006 1.6320161132812498 0.06600000000000006 Q 1.72051611328125 0.06600000000000006 1.79926611328125 0.10125000000000006 Q 1.8780161132812498 0.13650000000000007 1.9372661132812499 0.1995 Q 1.99651611328125 0.26250000000000007 2.03101611328125 0.35025000000000006 Q 2.06551611328125 0.43800000000000006 2.06551611328125 0.543 Q 2.06551611328125 0.6480000000000001 2.03101611328125 0.7357500000000001 Q 1.99651611328125 0.8235000000000001 1.9372661132812499 0.8865000000000001 Q 1.8780161132812498 0.9495 1.79926611328125 0.98475 Q 1.72051611328125 1.02 1.6320161132812498 1.02 Q 1.54201611328125 1.02 1.46551611328125 0.98475 Q 1.38901611328125 0.9495 1.33276611328125 0.8865000000000001 Q 1.27651611328125 0.8235000000000001 1.24426611328125 0.7357500000000001 Q 1.21201611328125 0.6480000000000001 1.21201611328125 0.543 M 2.40600146484375 0.018000000000000016 L 2.40600146484375 0.663 Q 2.40600146484375 0.7245 2.41800146484375 0.7987500000000001 Q 2.43000146484375 0.873 2.47500146484375 0.9367500000000001 Q 2.52000146484375 1.0005000000000002 2.6085014648437497 1.04325 Q 2.69700146484375 1.086 2.85000146484375 1.086 Q 2.94600146484375 1.086 3.02025146484375 1.056 Q 3.09450146484375 1.026 3.14475146484375 0.9735 Q 3.1950014648437497 0.921 3.2205014648437498 0.8512500000000001 Q 3.24600146484375 0.7815000000000001 3.24600146484375 0.7020000000000001 L 3.24600146484375 0.018000000000000016 L 3.18000146484375 0.018000000000000016 L 3.18000146484375 0.6525000000000001 Q 3.18000146484375 0.6855 3.17850146484375 0.7192500000000001 Q 3.17700146484375 0.7530000000000001 3.16950146484375 0.7867500000000001 Q 3.1620014648437498 0.8205 3.14625146484375 0.8535 Q 3.13050146484375 0.8865000000000001 3.1005014648437497 0.9195000000000001 Q 3.04650146484375 0.9780000000000001 2.97900146484375 0.9990000000000001 Q 2.91150146484375 1.02 2.83800146484375 1.02 Q 2.7750014648437498 1.02 2.7262514648437497 1.0005000000000002 Q 2.67750146484375 0.9810000000000001 2.6340014648437498 0.9420000000000001 Q 2.5995014648437498 0.912 2.58150146484375 0.8820000000000001 Q 2.5635014648437497 0.8520000000000001 2.55450146484375 0.8227500000000001 Q 2.54550146484375 0.7935000000000001 2.54400146484375 0.7635000000000001 Q 2.54250146484375 0.7335 2.54250146484375 0.7035 L 2.54250146484375 0.018000000000000016 L 2.40600146484375 0.018000000000000016 M 4.39045751953125 0.018000000000000016 L 4.39045751953125 0.8205 L 4.384457519531249 0.8205 L 3.55195751953125 0 L 3.54445751953125 0 L 3.54445751953125 1.068 L 3.61345751953125 1.068 L 3.61345751953125 0.26550000000000007 L 3.6194575195312497 0.26550000000000007 L 4.45195751953125 1.086 L 4.45945751953125 1.086 L 4.45945751953125 0.018000000000000016 L 4.39045751953125 0.018000000000000016 M 5.2064208984375 1.068 L 5.2064208984375 0.10050000000000003 L 5.6084208984375 0.10050000000000003 L 5.6084208984375 0.018000000000000016 L 4.6679208984375 0.018000000000000016 L 4.6679208984375 0.10050000000000003 L 5.0699208984375 0.10050000000000003 L 5.0699208984375 1.068 L 5.2064208984375 1.068 M 5.8769091796875 0.018000000000000016 L 5.8769091796875 1.068 L 6.0134091796875 1.068 L 6.0134091796875 0.018000000000000016 L 5.8769091796875 0.018000000000000016 M 6.431925292968749 0.018000000000000016 L 6.431925292968749 1.068 L 6.568425292968749 1.068 L 6.568425292968749 0.546 L 7.03342529296875 0.546 L 7.03342529296875 0.4770000000000001 L 6.568425292968749 0.4770000000000001 L 6.568425292968749 0.10050000000000003 L 7.109925292968749 0.10050000000000003 L 7.109925292968749 0.018000000000000016 L 6.431925292968749 0.018000000000000016 M 7.273409912109375 0.018000000000000016 L 7.273409912109375 0.663 Q 7.273409912109375 0.7245 7.285409912109374 0.7987500000000001 Q 7.297409912109375 0.873 7.342409912109375 0.9367500000000001 Q 7.387409912109375 1.0005000000000002 7.475909912109374 1.04325 Q 7.564409912109374 1.086 7.717409912109375 1.086 Q 7.813409912109375 1.086 7.887659912109375 1.056 Q 7.961909912109375 1.026 8.012159912109375 0.9735 Q 8.062409912109375 0.921 8.087909912109374 0.8512500000000001 Q 8.113409912109375 0.7815000000000001 8.113409912109375 0.7020000000000001 L 8.113409912109375 0.018000000000000016 L 8.047409912109375 0.018000000000000016 L 8.047409912109375 0.6525000000000001 Q 8.047409912109375 0.6855 8.045909912109375 0.7192500000000001 Q 8.044409912109375 0.7530000000000001 8.036909912109374 0.7867500000000001 Q 8.029409912109374 0.8205 8.013659912109375 0.8535 Q 7.997909912109375 0.8865000000000001 7.967909912109374 0.9195000000000001 Q 7.913909912109375 0.9780000000000001 7.846409912109374 0.9990000000000001 Q 7.778909912109374 1.02 7.705409912109374 1.02 Q 7.6424099121093745 1.02 7.593659912109374 1.0005000000000002 Q 7.544909912109374 0.9810000000000001 7.5014099121093745 0.9420000000000001 Q 7.466909912109375 0.912 7.448909912109374 0.8820000000000001 Q 7.4309099121093745 0.8520000000000001 7.421909912109375 0.8227500000000001 Q 7.412909912109375 0.7935000000000001 7.411409912109375 0.7635000000000001 Q 7.4099099121093746 0.7335 7.4099099121093746 0.7035 L 7.4099099121093746 0.018000000000000016 L 7.273409912109375 0.018000000000000016 M 8.411865966796874 1.068 L 8.411865966796874 0.018000000000000016 L 8.548365966796874 0.018000000000000016 L 8.548365966796874 0.9855 L 9.089865966796875 0.9855 L 9.089865966796875 1.068 L 8.411865966796874 1.068 M 9.83681396484375 0.018000000000000016 L 9.83681396484375 1.068 L 9.973313964843749 1.068 L 9.973313964843749 0.546 L 10.438313964843749 0.546 L 10.438313964843749 0.4770000000000001 L 9.973313964843749 0.4770000000000001 L 9.973313964843749 0.10050000000000003 L 10.51481396484375 0.10050000000000003 L 10.51481396484375 0.018000000000000016 L 9.83681396484375 0.018000000000000016 M 10.633298583984374 0.543 Q 10.633298583984374 0.627 10.665548583984375 0.7222500000000001 Q 10.697798583984374 0.8175000000000001 10.766798583984375 0.8985000000000001 Q 10.835798583984374 0.9795 10.942298583984375 1.03275 Q 11.048798583984375 1.086 11.197298583984374 1.086 Q 11.297798583984374 1.086 11.379548583984374 1.06125 Q 11.461298583984375 1.0365 11.526548583984374 0.9945 Q 11.591798583984374 0.9525 11.639798583984375 0.89775 Q 11.687798583984375 0.8430000000000001 11.718548583984374 0.7822500000000001 Q 11.749298583984375 0.7215 11.765048583984374 0.66 Q 11.780798583984375 0.5985 11.780798583984375 0.543 Q 11.780798583984375 0.4590000000000001 11.746298583984375 0.36375 Q 11.711798583984374 0.26850000000000007 11.639798583984375 0.1875 Q 11.567798583984374 0.10650000000000004 11.457548583984375 0.05325000000000002 Q 11.347298583984374 0 11.197298583984374 0 Q 11.048798583984375 0 10.942298583984375 0.05249999999999999 Q 10.835798583984374 0.1050000000000001 10.766798583984375 0.18525000000000003 Q 10.697798583984374 0.26550000000000007 10.665548583984375 0.36150000000000004 Q 10.633298583984374 0.4575 10.633298583984374 0.543 M 10.780298583984374 0.543 Q 10.780298583984374 0.43800000000000006 10.812548583984375 0.35025000000000006 Q 10.844798583984375 0.26250000000000007 10.901048583984375 0.1995 Q 10.957298583984375 0.13650000000000007 11.033798583984375 0.10125000000000006 Q 11.110298583984374 0.06600000000000006 11.200298583984374 0.06600000000000006 Q 11.288798583984374 0.06600000000000006 11.367548583984375 0.10125000000000006 Q 11.446298583984374 0.13650000000000007 11.505548583984375 0.1995 Q 11.564798583984373 0.26250000000000007 11.599298583984375 0.35025000000000006 Q 11.633798583984374 0.43800000000000006 11.633798583984374 0.543 Q 11.633798583984374 0.6480000000000001 11.599298583984375 0.7357500000000001 Q 11.564798583984373 0.8235000000000001 11.505548583984375 0.8865000000000001 Q 11.446298583984374 0.9495 11.367548583984375 0.98475 Q 11.288798583984374 1.02 11.200298583984374 1.02 Q 11.110298583984374 1.02 11.033798583984375 0.98475 Q 10.957298583984375 0.9495 10.901048583984375 0.8865000000000001 Q 10.844798583984375 0.8235000000000001 10.812548583984375 0.7357500000000001 Q 10.780298583984374 0.6480000000000001 10.780298583984374 0.543 M 11.929283935546874 0.543 Q 11.929283935546874 0.627 11.961533935546875 0.7222500000000001 Q 11.993783935546874 0.8175000000000001 12.062783935546875 0.8985000000000001 Q 12.131783935546874 0.9795 12.238283935546875 1.03275 Q 12.344783935546875 1.086 12.493283935546874 1.086 Q 12.593783935546874 1.086 12.675533935546873 1.06125 Q 12.757283935546875 1.0365 12.822533935546874 0.9945 Q 12.887783935546874 0.9525 12.935783935546874 0.89775 Q 12.983783935546874 0.8430000000000001 13.014533935546874 0.7822500000000001 Q 13.045283935546875 0.7215 13.061033935546874 0.66 Q 13.076783935546874 0.5985 13.076783935546874 0.543 Q 13.076783935546874 0.4590000000000001 13.042283935546875 0.36375 Q 13.007783935546874 0.26850000000000007 12.935783935546874 0.1875 Q 12.863783935546873 0.10650000000000004 12.753533935546875 0.05325000000000002 Q 12.643283935546874 0 12.493283935546874 0 Q 12.344783935546875 0 12.238283935546875 0.05249999999999999 Q 12.131783935546874 0.1050000000000001 12.062783935546875 0.18525000000000003 Q 11.993783935546874 0.26550000000000007 11.961533935546875 0.36150000000000004 Q 11.929283935546874 0.4575 11.929283935546874 0.543 M 12.076283935546874 0.543 Q 12.076283935546874 0.43800000000000006 12.108533935546875 0.35025000000000006 Q 12.140783935546875 0.26250000000000007 12.197033935546875 0.1995 Q 12.253283935546875 0.13650000000000007 12.329783935546875 0.10125000000000006 Q 12.406283935546874 0.06600000000000006 12.496283935546874 0.06600000000000006 Q 12.584783935546874 0.06600000000000006 12.663533935546875 0.10125000000000006 Q 12.742283935546874 0.13650000000000007 12.801533935546875 0.1995 Q 12.860783935546873 0.26250000000000007 12.895283935546875 0.35025000000000006 Q 12.929783935546874 0.43800000000000006 12.929783935546874 0.543 Q 12.929783935546874 0.6480000000000001 12.895283935546875 0.7357500000000001 Q 12.860783935546873 0.8235000000000001 12.801533935546875 0.8865000000000001 Q 12.742283935546874 0.9495 12.663533935546875 0.98475 Q 12.584783935546874 1.02 12.496283935546874 1.02 Q 12.406283935546874 1.02 12.329783935546875 0.98475 Q 12.253283935546875 0.9495 12.197033935546875 0.8865000000000001 Q 12.140783935546875 0.8235000000000001 12.108533935546875 0.7357500000000001 Q 12.076283935546874 0.6480000000000001 12.076283935546874 0.543 M 13.345269287109375 1.068 L 13.345269287109375 0.018000000000000016 L 13.690269287109373 0.018000000000000016 Q 13.814769287109375 0.018000000000000016 13.918269287109375 0.05774999999999997 Q 14.021769287109374 0.09750000000000003 14.096019287109375 0.16725 Q 14.170269287109374 0.237 14.211519287109374 0.3330000000000001 Q 14.252769287109373 0.42900000000000005 14.252769287109373 0.54 Q 14.252769287109373 0.6555 14.210019287109374 0.7522500000000001 Q 14.167269287109374 0.8490000000000001 14.093019287109374 0.9195000000000001 Q 14.018769287109375 0.9900000000000001 13.919769287109375 1.0290000000000001 Q 13.820769287109375 1.068 13.708269287109374 1.068 L 13.345269287109375 1.068 M 13.481769287109374 1.002 L 13.646769287109374 1.002 Q 13.769769287109375 1.002 13.856019287109374 0.9607500000000001 Q 13.942269287109374 0.9195000000000001 13.997769287109374 0.8535 Q 14.053269287109375 0.7875000000000001 14.078769287109374 0.7057500000000001 Q 14.104269287109375 0.6240000000000001 14.104269287109375 0.543 Q 14.104269287109375 0.45300000000000007 14.074269287109374 0.36975 Q 14.044269287109374 0.2865000000000001 13.986519287109374 0.22275 Q 13.928769287109374 0.15900000000000003 13.843269287109374 0.12150000000000005 Q 13.757769287109374 0.08400000000000007 13.646769287109374 0.08400000000000007 L 13.481769287109374 0.08400000000000007 L 13.481769287109374 1.002 M 14.351791259765625 0.8025 Q 14.354791259765625 0.867 14.385541259765624 0.9195000000000001 Q 14.416291259765623 0.9720000000000001 14.469541259765624 1.00875 Q 14.522791259765624 1.0455 14.594791259765625 1.06575 Q 14.666791259765624 1.086 14.752291259765624 1.086 Q 14.839291259765623 1.086 14.909041259765624 1.0650000000000002 Q 14.978791259765623 1.044 15.028291259765624 1.0050000000000001 Q 15.077791259765624 0.9660000000000001 15.104791259765625 0.9105000000000001 Q 15.131791259765624 0.8550000000000001 15.131791259765624 0.7875000000000001 Q 15.131791259765624 0.6945000000000001 15.085291259765624 0.6352500000000001 Q 15.038791259765624 0.5760000000000001 14.969041259765625 0.53625 Q 14.899291259765624 0.49650000000000005 14.817541259765624 0.46950000000000003 Q 14.735791259765625 0.4425 14.666041259765624 0.4125000000000001 Q 14.596291259765625 0.38250000000000006 14.549791259765625 0.3435 Q 14.503291259765625 0.3045 14.503291259765625 0.24 Q 14.503291259765625 0.20400000000000007 14.519041259765624 0.1725 Q 14.534791259765624 0.14100000000000001 14.565541259765624 0.11775000000000002 Q 14.596291259765625 0.09450000000000003 14.641291259765625 0.08025000000000004 Q 14.686291259765625 0.06600000000000006 14.744791259765623 0.06600000000000006 Q 14.842291259765624 0.06600000000000006 14.910541259765624 0.10725000000000007 Q 14.978791259765623 0.14850000000000008 14.990791259765624 0.237 L 15.092791259765624 0.237 Q 15.083791259765624 0.1815 15.052291259765624 0.1372500000000001 Q 15.020791259765625 0.09300000000000008 14.972791259765625 0.06225000000000014 Q 14.924791259765625 0.031500000000000083 14.864041259765624 0.01574999999999993 Q 14.803291259765624 0 14.737291259765625 0 Q 14.668291259765624 0 14.606041259765624 0.018000000000000016 Q 14.543791259765625 0.03600000000000003 14.496541259765625 0.07050000000000001 Q 14.449291259765625 0.1050000000000001 14.421541259765624 0.15750000000000008 Q 14.393791259765624 0.21000000000000008 14.393791259765624 0.2775000000000001 Q 14.393791259765624 0.366 14.438791259765624 0.42000000000000004 Q 14.483791259765624 0.4740000000000001 14.552041259765625 0.51 Q 14.620291259765624 0.546 14.699791259765624 0.5715000000000001 Q 14.779291259765625 0.597 14.847541259765624 0.6292500000000001 Q 14.915791259765625 0.6615 14.960791259765625 0.7080000000000001 Q 15.005791259765624 0.7545000000000001 15.005791259765624 0.8325 Q 15.005791259765624 0.93 14.934541259765624 0.9750000000000001 Q 14.863291259765624 1.02 14.744791259765623 1.02 Q 14.650291259765623 1.02 14.593291259765625 0.9952500000000001 Q 14.536291259765624 0.9705 14.506291259765625 0.936 Q 14.476291259765624 0.9015000000000001 14.465791259765624 0.86475 Q 14.455291259765625 0.8280000000000001 14.453791259765625 0.8025 L 14.351791259765625 0.8025" fill="#8a615c" fill-rule="nonzero"></path></g><g></g><g clip-path="url(#SvgjsClipPath1002)"><g clip-path="url(#SvgjsClipPath1000582382b9-ea83-4968-a4fa-d8f735f42406)"><path d=" M 1.771291703583485 -9.444379772400433 C 2.020532968379052 -9.832278790006647 1.4521943465924372 -9.930999946713092 1.2357063627602205 -9.983392015859698 C 1.1561311865602657 -9.971208312060606 1.08156486330399 -9.936961684723062 1.020470516429624 -9.88453905520572 C 1.0248859486721673 -9.801436666282608 1.0290377730196332 -9.718400179333265 1.033650911183486 -9.635495496331458 C 1.1995920811346328 -9.434758084230113 1.2822331562413614 -9.24667385109247 1.5950039237505536 -9.236854457000845 C 1.675140723854046 -9.310532863674943 1.7355728338005139 -9.333334946599127 1.771291703583485 -9.444379772400433 Z" fill="#8a615c" transform="matrix(1,0,0,1,0,0)" fill-rule="nonzero"></path></g><g clip-path="url(#SvgjsClipPath1000582382b9-ea83-4968-a4fa-d8f735f42406)"><path d=" M 13.416434076517383 -9.103271156170434 C 13.49353938582749 -9.045848569692767 13.570425021891694 -8.9884259832151 13.647090984710005 -8.931003396737431 L 13.875111813951849 -8.941086398724137 C 13.929546844285305 -9.040027228676477 13.984135645890895 -9.138880189330456 14.038878218768613 -9.237645280686074 C 14.024775196381976 -9.281338289295137 14.011133487811726 -9.325163101851732 13.996964563451323 -9.368394796644406 C 13.92552682388538 -9.477857975075246 13.859558948142292 -9.488006879035721 13.72439399994141 -9.511995197487757 C 13.646300161024767 -9.470411052039314 13.568404028029432 -9.428958710538414 13.489980679243942 -9.38737456508997 C 13.441674532471033 -9.29155309522938 13.40621927058314 -9.253000440574327 13.416434076517383 -9.103271156170434 Z" fill="#8a615c" transform="matrix(1,0,0,1,0,0)" fill-rule="nonzero"></path></g><g clip-path="url(#SvgjsClipPath1000582382b9-ea83-4968-a4fa-d8f735f42406)"><path d=" M 3.1207664204578487 -7.95150236060403 C 3.0440565229903616 -8.046994320595775 2.8752156661933626 -8.071971168654347 2.755339975906969 -8.10432903777508 C 2.632366892853419 -8.056352400871017 2.508998397957252 -8.008507567914489 2.38628892279878 -7.960399127062887 C 2.3156555204721374 -7.849450066068153 2.293576213021262 -7.714401874863766 2.325197793114622 -7.586734935790842 C 2.4695890176432003 -7.445968319819577 2.5365454229928286 -7.327278865061031 2.73886448246464 -7.258279498524553 L 3.0821478638290274 -7.421518687551159 C 3.1636686053816745 -7.557738067332343 3.2710229206518973 -7.756234812325536 3.1207664204578487 -7.95150236060403 Z" fill="#8a615c" transform="matrix(1,0,0,1,0,0)" fill-rule="nonzero"></path></g><g clip-path="url(#SvgjsClipPath1000582382b9-ea83-4968-a4fa-d8f735f42406)"><path d=" M 2.8447030523381653 -1.4571264535326325 C 2.835279070089152 -1.4710317699979605 2.825525577971294 -1.4847393805419777 2.8161015957222806 -1.4984469910859968 L 2.7710246456640673 -1.4918567937090668 C 2.7582396627528194 -1.4748540844765792 2.7453228758940327 -1.4579831791916344 2.7324719910090143 -1.4407827640378432 C 2.735635285749942 -1.418639700851351 2.739062188385945 -1.3962989317435532 2.742093679179334 -1.3738263586882127 C 2.7786033726475363 -1.3870067534420798 2.814585850325585 -1.3995940304320182 2.8511614457675574 -1.4123131113694978 C 2.849052582606941 -1.427338761388901 2.846877817472553 -1.4422985094345364 2.8447030523381653 -1.4571264535326325 Z" fill="#8a615c" transform="matrix(1,0,0,1,0,0)" fill-rule="nonzero"></path></g><g clip-path="url(#SvgjsClipPath1000582382b9-ea83-4968-a4fa-d8f735f42406)"><path d=" M 13.116711899814518 -6.3923934651694605 C 12.987675835174189 -6.295715269649868 13.048239749068195 -6.096625406892752 13.065176556326909 -5.9517728685477875 L 13.21918946902581 -5.837037532215401 C 13.715892645325175 -5.7136031353454655 14.371946794198754 -6.246222887349109 14.178656305133343 -6.658373831302435 C 14.168243793277789 -6.679791972777464 14.157304065632081 -6.7009465063574165 14.146759749828991 -6.7222987458586765 C 13.945231514042412 -6.712940665583433 13.91353266465937 -6.550492300242059 13.742187532859136 -6.5048222324199205 C 13.566558772763893 -6.457702321174857 13.296360680309686 -6.557346105514068 13.116711899814518 -6.3923934651694605 Z" fill="#8a615c" transform="matrix(1,0,0,1,0,0)" fill-rule="nonzero"></path></g><g clip-path="url(#SvgjsClipPath1000582382b9-ea83-4968-a4fa-d8f735f42406)"><path d=" M 3.714345498198111 -1.307924384918893 C 3.676649569202059 -1.30245452109604 3.6394149540223926 -1.2971823631944943 3.601653123052575 -1.2917784013454092 C 3.5899225717216354 -1.267196965129454 3.5781261184169257 -1.2428132348348058 3.5667909789286054 -1.2182977005926183 C 3.564286703925369 -1.180008653832644 3.5624414486598326 -1.1417855090464393 3.560200781551672 -1.1033646583389256 C 3.6590537422056513 -1.0230301523141243 3.7088097324014884 -0.9616754147348878 3.8582754089103064 -0.9408503910237815 C 3.8896447484245025 -0.9908699891146959 3.920552774122313 -1.0410213911531496 3.9517903096889704 -1.090909185296523 C 3.8840924729448956 -1.1748582620808214 3.8040302137768083 -1.2480320115786068 3.714345498198111 -1.307924384918893 Z" fill="#8a615c" transform="matrix(1,0,0,1,0,0)" fill-rule="nonzero"></path></g><g clip-path="url(#SvgjsClipPath1000582382b9-ea83-4968-a4fa-d8f735f42406)"><path d=" M 5.779779258102366 -12.34380301035543 C 5.920018658283478 -12.151237443001477 5.956923763594296 -11.935606184828263 6.1323548177682285 -11.80129796228639 C 6.160099548725112 -11.820475436653261 6.188107887577073 -11.839652911020133 6.215918520507724 -11.858632679465696 C 6.231471386317284 -12.156575502876791 6.05162489990081 -12.517652417158898 5.8343460923833605 -12.602270551478702 C 5.76475360808296 -12.52595606585383 5.755395527807718 -12.496431981605173 5.779779258102366 -12.34380301035543 Z" fill="#8a615c" transform="matrix(1,0,0,1,0,0)" fill-rule="nonzero"></path></g><g clip-path="url(#SvgjsClipPath1000582382b9-ea83-4968-a4fa-d8f735f42406)"><path d=" M 11.02518095829761 -0.506490481910193 C 11.060438514264199 -0.47353949502553405 11.095761972204556 -0.44058850814087336 11.131217234092444 -0.40763752125621444 L 11.220778016444948 -0.42042250416746363 C 11.236924000018433 -0.4685309450190669 11.25280637569684 -0.5165075819231326 11.26895235927032 -0.5644842188271966 C 11.243250589500288 -0.5835298892465293 11.217680623677788 -0.6027732655871709 11.191912951933988 -0.6217530340327357 C 11.140773020288997 -0.647191195907693 11.155930474255939 -0.669202455146646 11.099188874840557 -0.6312429182555164 C 11.03513215633678 -0.5803006925318321 11.044424334638256 -0.5912404201775381 11.02518095829761 -0.506490481910193 Z" fill="#8a615c" transform="matrix(1,0,0,1,0,0)" fill-rule="nonzero"></path></g><g clip-path="url(#SvgjsClipPath1000582382b9-ea83-4968-a4fa-d8f735f42406)"><path d=" M 12.389813129138917 -3.141646805050218 C 12.449463709601632 -3.0705016153053286 12.528675640578664 -3.018419255134434 12.617636252459457 -2.9918516186725554 C 12.944689113863085 -3.0182346372394324 13.19564750785111 -3.2930513464357176 13.192301463727928 -3.6211495661957915 C 13.140963826161626 -3.6595704169033034 13.08942848267402 -3.697859463663278 13.038222649055257 -3.7360167064757146 C 12.711348859159429 -3.822611900008601 12.354885083041179 -3.438469294907236 12.389813129138917 -3.141646805050218 Z" fill="#8a615c" transform="matrix(1,0,0,1,0,0)" fill-rule="nonzero"></path></g><g clip-path="url(#SvgjsClipPath1000582382b9-ea83-4968-a4fa-d8f735f42406)"><path d=" M 13.80716687899568 -1.405986521887641 C 13.828321412575633 -1.416662641638272 13.849871357998198 -1.4274705653364403 13.87128949947323 -1.4380807831132998 C 13.890401071866332 -1.463518944988257 13.909842154128283 -1.4891548127845233 13.928887824547617 -1.5146588766332503 C 13.86751691803483 -1.6119196574377561 13.77647946505591 -1.68685226150137 13.669234047896499 -1.7283789775671536 C 13.669234047896495 -1.6751960847353136 13.669234047896495 -1.621947289929702 13.669234047896495 -1.568764397097862 C 13.715233625587482 -1.5145929746594806 13.760969595383388 -1.4603556502473296 13.80716687899568 -1.405986521887641 Z" fill="#8a615c" transform="matrix(1,0,0,1,0,0)" fill-rule="nonzero"></path></g><g clip-path="url(#SvgjsClipPath1000582382b9-ea83-4968-a4fa-d8f735f42406)"><path d=" M 6.025395914340622 -10.143995125935533 C 5.425160737249656 -9.939699007250642 5.1458681724152795 -9.979767407302388 4.623463226345879 -10.012191178396893 C 4.656589951827258 -9.887724317271237 4.689672742659455 -9.76323548882099 4.722711598842473 -9.638724693046157 C 4.630712443460502 -9.534292031946375 4.538757222727712 -9.429903305495772 4.4468459366441015 -9.325558513694348 C 3.270363900914203 -8.407412215140186 3.3454921510112285 -9.994397645479175 2.7148761640126065 -10.217937140504707 C 2.546101209189378 -10.26037801161215 2.4359790110208435 -10.146301695017458 2.3458251109044146 -10.074139033740053 C 1.9158806340333723 -9.730130730664204 2.3392349135274833 -9.245421713590856 2.4930501203050763 -8.886453662469371 C 2.8416715615447763 -8.750827400452112 3.193851709368025 -9.035589829109343 3.5743038039383057 -8.858708931512489 C 3.665643939582585 -8.5957600561729 3.7822245311805087 -8.47950897444382 3.8628226451003864 -8.284241426165325 L 3.663469174448195 -8.073355110103503 C 3.7463079554762304 -7.624562668734435 3.9977239854061875 -7.655932008248631 4.070545666421287 -7.310803371618703 C 3.7948118081704494 -6.88659236646559 3.325853362827972 -6.771857030133205 2.835015462194077 -6.495530054118447 C 2.814849458220665 -6.477472913305653 2.794288042404639 -6.459283968545321 2.774122038431227 -6.44109502378499 C 2.8406830319382386 -6.304743840056267 2.9040807307043246 -6.301844153210417 2.9375589333791376 -6.099656897686144 C 2.779855510149156 -5.875062971080301 2.6035677303162252 -5.862871105932977 2.269971939095929 -5.798946191376737 C 2.233528147601495 -5.733044217607417 2.197018454133291 -5.667142243838097 2.1609700744814737 -5.600844858226161 C 2.273398841731932 -5.153634064227557 2.743411718654723 -5.0179419002365275 2.7183689686223804 -4.267054811108897 C 2.534766069701055 -4.129912803694943 2.301275376636354 -4.080156813499105 2.252771523942135 -3.83546278489362 L 2.3586100938156647 -3.7366098242396397 L 2.910670928081256 -3.724352057118546 C 3.0307443242889582 -3.669851124811318 3.0220452637514077 -3.501076169988089 3.115757870451379 -3.4117130935568927 C 3.332575364152442 -3.2047808959212283 4.0196034406976 -3.1481051984796125 4.000755476199574 -2.6716998301012005 C 3.992254121583331 -2.455014140347675 3.674540706041442 -2.1618162590479724 3.544713817715881 -2.013536818067001 C 3.5501177795649648 -1.9762363009135662 3.5553240354927413 -1.9391334896814403 3.560727997341825 -1.9015034626591572 C 3.7227714149975135 -1.790250521247227 3.860302874277047 -1.6469773702560886 3.964838900495298 -1.4805216542207429 C 4.147321465862542 -1.4726134173684269 4.205578810674622 -1.5606584543242352 4.2536213495524535 -1.7041270512200448 L 4.320907264770931 -1.713682837416595 C 4.642574798738982 -1.5357475082394316 4.996468397880227 -1.5236874470396469 5.376459178634128 -1.3859523218617689 C 5.667789837343702 -1.2150026019041515 5.959493940571303 -1.0438551760252288 6.251571488316925 -0.8725100442249971 C 6.2318008961861295 -0.6250481327212007 6.0530747433237355 -0.5508425102569472 5.985261612315103 -0.33270697708049823 C 6.004109576813129 -0.30515995204492086 6.023352953153769 -0.27741522108803807 6.042530427520646 -0.24986819605246247 C 6.632353092756056 -0.2514498434229253 6.885482574004016 -0.49073991017932705 7.246032272495965 -0.8095736592752978 C 7.350777761023428 -0.8153707466622855 7.453834750132554 -0.781300958396141 7.534485211684279 -0.7142135032310897 C 7.628395031931996 -0.72949942899238 7.711968789894775 -0.7825247164519542 7.765801139614591 -0.860977198815366 C 7.926338347716653 -0.8082556197999082 8.086699817222 -0.7552045309156075 8.246885548130628 -0.7018239321624584 C 8.400503048986913 -0.9034839718965788 8.613432326235582 -1.04932503984808 8.840794135739738 -1.1973408729339745 C 9.108487953190716 -1.2368820571955652 9.171622044061722 -1.1472553728692905 9.283391791574488 -0.9868499687147665 C 9.394304813428253 -1.0223711325764278 9.40293797199204 -1.1027715405749987 9.46956486747282 -1.1276165846860344 C 9.548647235996002 -1.1572724728822266 9.694158794078664 -1.0932157543784502 9.81225513107328 -1.1311752912695763 C 9.905638227904404 -1.3468065494427925 9.761247003375825 -1.4724157114471144 9.648818236125367 -1.6320302919164078 C 9.84243823505963 -1.991591460801816 9.89647785355047 -2.5454316483591803 10.316800642251193 -2.730945704519817 C 10.450581649002913 -2.6506111984950156 10.48353263588757 -2.4932372851338798 10.537769960299727 -2.306405189497859 C 10.621531368960529 -2.264162024311725 10.621399565012993 -2.2411622354662324 10.752808100709013 -2.245841275603853 C 10.868060808266092 -2.444688627355365 10.915524365917696 -2.6756224283269123 10.888038950883658 -2.9038065817167418 C 11.048312551090648 -3.0570286707304106 11.459672671358737 -3.27806389075271 11.712538544711622 -3.2267262531864116 C 11.726509763150718 -3.2363479413567315 11.740415079616044 -3.2459037275532836 11.754254494107599 -3.255591317697373 C 11.679565590502373 -3.4043979744684982 11.604876686897141 -3.553270533213391 11.530187783291915 -3.7022089939320537 C 11.763217162540231 -4.084901755610494 11.999212130608166 -4.282146363102068 11.854491396210737 -4.797697503899458 C 11.944513492379627 -4.955862240945826 11.98306614703468 -5.1354451194672235 12.079480734659194 -5.308569604559225 L 12.37149238043105 -5.510097840345805 C 12.514895075353087 -5.652314299739999 12.800975543485706 -6.229088374169086 12.81138805534126 -6.439645180362064 C 12.81046542770849 -6.446960299450458 12.809410996128184 -6.454407222486391 12.808356564547873 -6.461985949469862 C 12.647028532760576 -6.522220353495021 12.480494245045504 -6.449200966558614 12.304997288897807 -6.4584272428863185 C 12.266378732268986 -6.513455390983701 12.227891979587701 -6.569010754871238 12.18947112888019 -6.624170706916159 C 12.599908621515514 -6.9360847487663495 13.06853755698915 -7.065713931170601 13.742253434832907 -7.1428851424544755 C 13.761760419068626 -7.168411173627792 13.781003795409271 -7.1939591721257 13.799983563854829 -7.219529137948196 C 13.79787470069421 -7.234225278098754 13.795699935559826 -7.249250928118158 13.793393366477895 -7.264012970242487 C 13.792338934897584 -7.2715916972259595 13.791284503317277 -7.278972718288123 13.790164169763198 -7.2864196413240565 C 13.571699126717906 -7.377627973020794 13.099313778739418 -7.263222146557256 12.84071443366861 -7.196331643181397 C 12.805390975728255 -7.229282630066057 12.770001615814135 -7.2622336169507165 12.734744059847545 -7.295184603835376 C 12.771583263184596 -7.499019408703882 12.737446040772086 -7.664235656943567 12.69335762032041 -7.905041469096662 C 12.965664575935245 -8.121661256876418 13.09832524913288 -7.932061278342083 13.360746908682316 -7.886391210519945 C 13.380912912655726 -7.904448351332739 13.401474328471755 -7.922637296093072 13.421640332445165 -7.940496730984556 C 13.38546014884581 -8.086733210778677 13.35026849485299 -8.093125702234303 13.274415323044504 -8.170428717465715 C 12.950638925915838 -8.179654993793417 12.746013297362099 -8.157248322711851 12.52688923457911 -8.26882036430331 C 12.197774777575125 -9.193490958260636 12.050549768174466 -9.44022794805297 11.038888568841637 -9.218995022109363 C 10.995129658258808 -9.258536206370955 10.951041237807132 -9.297550174842392 10.907480033145607 -9.336827751208908 C 10.885798283775504 -9.432781025017038 10.86457784822178 -9.528470690930089 10.843159706746754 -9.624160356843143 C 11.185849970347215 -10.052061872527336 11.324244115262788 -10.356858501210441 11.479113753620688 -10.946483460524545 C 11.498884345751486 -10.972119328320812 11.517732310249514 -10.997689294143306 11.536843882642613 -11.023325161939573 L 11.511339818793884 -11.042436734332675 L 11.466394672683208 -11.035846536955743 C 11.23882565468313 -10.754752911387737 11.074533984382628 -10.427900376452786 10.984717146403245 -10.077565936376065 C 10.823767675752629 -9.947348171755717 10.61465302594905 -9.892507476839942 10.410513248951162 -9.926979926313164 C 10.244374373078703 -10.115393669319655 10.29426216722208 -10.548699146852933 10.032301821489035 -10.648277029218374 C 9.837231979131852 -10.687818213479964 9.74437609809088 -10.481149623739377 9.634122095974808 -10.386184879537788 C 9.466151922081803 -10.44829223569856 9.317059998692766 -10.552711061458238 9.201277932257915 -10.689333958876658 C 9.18895426316305 -11.029651751421426 9.42382889767691 -11.40054805979516 9.224409525050948 -11.650382442354651 C 9.190074596717128 -11.675820604229607 9.155937374304624 -11.701126962157028 9.121602445970804 -11.726762829953291 C 9.031756088398632 -11.554407201221931 8.941690057580562 -11.381941735867619 8.851404353516592 -11.209366433890361 C 8.343300135755138 -10.717012787859773 7.783792378453615 -10.98075248688459 7.29262496795087 -11.21450678784437 C 7.039956800519297 -11.147352676573432 7.058804765017323 -10.99518501914007 6.830388523932859 -10.920320376938125 C 6.643095114480453 -11.023193357992033 6.397544360215967 -11.456169325656465 6.311080970630619 -11.667055641718287 C 6.269518792506767 -11.691307568065396 6.227780875786198 -11.715691298360044 6.1858672204689125 -11.740206832602233 C 6.155618214508796 -11.682608507527847 6.125830522365061 -11.62527379034854 6.09604283022133 -11.567741367247924 C 5.9838776708659465 -10.98536562504844 6.5994021058713965 -10.715892454305688 6.025395914340622 -10.143995125935533 Z" fill="#8a615c" transform="matrix(1,0,0,1,0,0)" fill-rule="nonzero"></path></g><g clip-path="url(#SvgjsClipPath1000582382b9-ea83-4968-a4fa-d8f735f42406)"><path d=" M 4.413829047785674 -3.6874469518077255 C 4.3653251950914544 -3.556104318085472 4.312999027918616 -3.4252889001533724 4.26601092062109 -3.292891834850808 C 4.265681410752244 -3.290519363795111 4.265417802857164 -3.287883284844339 4.264890587067011 -3.2856426177361833 C 4.240902268614981 -3.147775688610766 4.210785066602399 -3.0116881127771205 4.181260982353745 -2.875336929048398 C 4.190505831811377 -2.8112173341966535 4.189950303477987 -2.7460649712566028 4.1796134330095125 -2.682112341956751 C 4.176034922664655 -2.668869693630148 4.165394854325969 -2.6587121104905904 4.152000506000168 -2.655751552449024 C 4.181971650346794 -2.5795477062425576 4.218393926014462 -2.5060417334362537 4.260870566667084 -2.4360343719021085 C 4.318864303584087 -2.901302306713509 4.397155848422038 -3.362418417177441 4.463453234033974 -3.825972900670836 C 4.447636760329333 -3.779314303242158 4.430699953070619 -3.73265570581348 4.413829047785674 -3.6874469518077255 Z" fill="#e9c3ad" transform="matrix(1,0,0,1,0,0)" fill-rule="nonzero"></path></g><g clip-path="url(#SvgjsClipPath1000582382b9-ea83-4968-a4fa-d8f735f42406)"><path d=" M 4.54800546638001 -4.501204523911287 C 4.5563750170487145 -4.5851636384934 4.563426528242028 -4.669320458996823 4.569950823645195 -4.753609083447782 C 4.548559397047013 -4.671295666609827 4.541141146035512 -4.585974641462537 4.54800546638001 -4.501204523911289 Z" fill="#e9c3ad" transform="matrix(1,0,0,1,0,0)" fill-rule="nonzero"></path></g><g clip-path="url(#SvgjsClipPath1000582382b9-ea83-4968-a4fa-d8f735f42406)"><path d=" M 4.573180020359889 -4.792425345997912 C 4.5738390400975835 -4.799015543374844 4.574563961809046 -4.805605740751776 4.57502527562543 -4.812195938128707 C 4.608437576326478 -5.28583342360881 4.598815888156155 -5.751233162367746 4.717439440940932 -6.205824977428516 C 4.800461269545817 -6.486656800775414 4.865897005436621 -6.772390646498401 4.913366008957126 -7.061364400901832 C 4.873165804957836 -6.924156491514101 4.839358092414175 -6.787343993968995 4.810361223955676 -6.659362360908975 C 4.706104301452612 -6.201211839264663 4.5966411230217705 -5.7482675735481275 4.570280333514043 -5.271137283458252 C 4.562042586792881 -5.125098509585439 4.549455309802942 -4.976028244919238 4.534890973599921 -4.826364862489113 C 4.551640028942302 -4.820560273146915 4.565407444242831 -4.808356798310814 4.573180020359889 -4.792425345997912 Z" fill="#e9c3ad" transform="matrix(1,0,0,1,0,0)" fill-rule="nonzero"></path></g><g clip-path="url(#SvgjsClipPath1000582382b9-ea83-4968-a4fa-d8f735f42406)"><path d=" M 4.901964967495026 -1.8908932448822977 C 4.867630039161209 -1.9025578942394663 4.833492816748701 -1.9144861514917153 4.799157888414885 -1.9264803107177286 C 4.864093299902256 -1.8879056887380887 4.931752659638757 -1.8515058318928332 5.00213596762439 -1.8172807401819675 C 5.025399364364961 -1.8087134835919532 5.0478719374202985 -1.8000803250281745 5.069026471000249 -1.7913812644906226 C 5.178226041536011 -1.7463043144324093 5.287491514045543 -1.7005024426627315 5.397086496423925 -1.655491394578286 C 5.430960110941355 -1.645276588644041 5.464833725458786 -1.6353253906048746 5.498970947871291 -1.6255059965132457 C 5.479200355740495 -1.634534566919644 5.459429763609697 -1.6427723136408083 5.439659171478905 -1.6518667860209746 C 5.262646469934513 -1.734573763101471 5.084183924967194 -1.8188623875524286 4.901964967495026 -1.8908932448822977 Z" fill="#e9c3ad" transform="matrix(1,0,0,1,0,0)" fill-rule="nonzero"></path></g><g clip-path="url(#SvgjsClipPath1000582382b9-ea83-4968-a4fa-d8f735f42406)"><path d=" M 6.88989800624656 -1.219681642041774 L 6.908284656928201 -1.215332111772998 C 6.952109469484799 -1.2087419143960663 6.996066085988933 -1.2021517170191363 7.041274839994685 -1.1955615196422027 C 7.0613749419943295 -1.1925959308225842 7.092480673613447 -1.188971322265271 7.130769720373422 -1.184753595944036 C 7.01471634456565 -1.2061058354452943 6.898003949020186 -1.2277875848154007 6.781489259396026 -1.2501283539232002 C 6.817405835100307 -1.2403089598315695 6.853586018699663 -1.2298305460022494 6.88989800624656 -1.219681642041774 Z" fill="#e9c3ad" transform="matrix(1,0,0,1,0,0)" fill-rule="nonzero"></path></g><g clip-path="url(#SvgjsClipPath1000582382b9-ea83-4968-a4fa-d8f735f42406)"><path d=" M 10.88850026470004 -6.399642682284085 C 10.881910067323107 -6.407089605320018 10.875319869946178 -6.414470626382182 10.868004750857786 -6.421983451391884 C 10.85649684208997 -6.433369655731695 10.852302179560478 -6.450224572441113 10.857130925185844 -6.465676460000944 C 10.8552856699203 -6.467785323161562 10.853045002812147 -6.469828284348411 10.85146335544168 -6.471937147509028 C 10.846520707408981 -6.474507324486033 10.84203937319267 -6.476747991594189 10.836899019238661 -6.479647678440039 C 10.8231047648938 -6.486636431403973 10.814032026605537 -6.500395915714072 10.813042504734169 -6.515827862039396 C 10.794005903469536 -6.5353920784494335 10.773103578290959 -6.553049797713276 10.75063333557462 -6.568549441054853 C 10.748332676285914 -6.570384539558741 10.746132743913352 -6.572342479370323 10.74404313819769 -6.574414716720321 C 10.703192479729953 -6.596590143415216 10.660872458834344 -6.6159446170714284 10.617379544613055 -6.6323425516635535 C 10.620542839353982 -6.640646200358488 10.623969741989987 -6.648818045105884 10.627133036730916 -6.657055791827049 C 10.623376624226063 -6.659494164856514 10.61968611369498 -6.661603028017132 10.61586379921636 -6.664305008941675 C 10.565053377440215 -6.7009465063574165 10.59846567814126 -6.749582162999174 10.65270300255341 -6.734358807058461 C 10.652119043464502 -6.738533161732283 10.6517451278491 -6.742734213646485 10.651582668999337 -6.7469460840484015 C 10.659991759082047 -6.836273217718022 10.681370840827748 -6.923898592225075 10.715046269739188 -7.007061174515907 C 10.715098872070902 -7.027396561390857 10.71384414724722 -7.047714298448082 10.711289857234338 -7.067888696304995 C 10.661863250527547 -7.3377682446979 10.568963960883222 -7.597837291054857 10.4362150187212 -7.837953259799488 C 10.432756076336242 -7.8439763723339135 10.427952060073936 -7.849118699600607 10.42217789830833 -7.852978909818898 C 10.412819818033089 -7.869322599313688 10.403461737757846 -7.8859298967035585 10.39173118642691 -7.902273586198348 C 10.227378410735565 -8.142388428595668 10.04065748099363 -8.366400586329075 9.83406868439092 -8.571310423904489 C 9.7333704684714 -8.632335651614875 9.629662729083083 -8.690724800374491 9.522945466225964 -8.746477870183334 C 9.376379476562997 -8.823714983440977 9.220784916493633 -8.906026548678858 9.05991819852272 -8.988008604047891 C 9.076855005781438 -9.014896609345772 9.09385771501392 -9.041718712669887 9.113101091354563 -9.068013600203845 C 9.16147454966707 -9.217429903499813 9.219321934485329 -9.363611213461017 9.286291478420338 -9.5056686080059 C 9.387516910130016 -9.717609355648033 9.486303968810228 -9.931658966450783 9.586738576834673 -10.145708577253535 C 9.729218644123938 -10.637139595651352 9.832487037020464 -11.130020457472098 10.03717856754797 -11.618288181128985 C 10.014113765748487 -11.635140798519542 9.986126059684185 -11.643898540980059 9.957568983234633 -11.643199127213789 C 9.800063265925957 -11.640628950236785 9.648356922308981 -11.652425403541493 9.489664969472457 -11.644253558794098 C 9.425344643073602 -11.444504676299287 9.384221811441545 -11.242251518801245 9.32491003504916 -11.042107224463821 C 9.278231376409371 -10.781618557931836 9.200000929023725 -10.527784546188308 9.091946557774612 -10.286211585329728 C 9.101684649557422 -10.278265090656165 9.105059450898116 -10.264873021843885 9.100250206469543 -10.253260598445063 C 9.018040016646996 -10.011948614823584 8.919214167768487 -9.77662066318263 8.804482148192836 -9.548966204772338 C 8.759019008957672 -9.425424142041464 8.703038626973235 -9.306011086181803 8.63715703679253 -9.1920411148377 C 8.605655893330798 -9.202453626693256 8.57415474986906 -9.212866138548808 8.542389998512249 -9.222883238561744 C 8.503507833988355 -9.231977710941912 8.464559767490687 -9.240017751741767 8.42547989704548 -9.247991890567855 C 8.449072803654895 -9.311785001176556 8.471874886579082 -9.375644013759029 8.493886145818035 -9.439568928315268 C 8.470886356972539 -9.396139527601287 8.448413783917204 -9.352841930834845 8.425941210861861 -9.309412530120863 L 8.410124737157227 -9.251286989256322 C 8.353712647610687 -9.262622128744646 8.297168754116614 -9.273034640600198 8.24016354680615 -9.282063211006596 C 8.1363020361457 -9.298670508396464 8.030727074167253 -9.313893864337178 7.9238340727134124 -9.328194592645119 C 7.488156124124441 -9.258404402423409 6.987564731372688 -9.305326607747164 6.5491188998854 -9.245092203722008 C 6.4123723043140615 -9.216293041184812 6.278393591641034 -9.183276152326385 6.147644075682706 -9.144789399645102 C 6.126357738155217 -9.13615624108132 6.104610086811339 -9.128116200281465 6.0839168670477735 -9.118428610137375 C 6.078282028865597 -9.116143566571006 6.072362442569998 -9.114635956578121 6.066321040051368 -9.113947275921063 C 5.938705925047698 -9.00209659968343 5.8357792616322905 -8.864898454576934 5.764094588345263 -8.711088510269207 C 5.734306896201531 -8.686902485895867 5.704782811952877 -8.660739402309446 5.675522335599298 -8.633390083195179 C 5.694304398123555 -8.615332942382386 5.70221263497587 -8.589960682481198 5.679740061920536 -8.573748796933945 C 5.6720035293406434 -8.569490353707245 5.665175167433265 -8.563759007319412 5.659639959920888 -8.556877891648998 C 5.648886447392314 -8.539627721926905 5.6281792042222465 -8.531355498495564 5.608500028275904 -8.53644827978051 C 5.599735065764583 -8.533416788987122 5.590376985489338 -8.531242023852732 5.581018905214096 -8.529001356744576 C 5.5823695505013555 -8.527679071999032 5.583523597319402 -8.526169933852357 5.584445807850101 -8.524520022528264 C 5.595456132123295 -8.505501132652665 5.602411830196946 -8.484409661074505 5.604875419718593 -8.462572167185101 C 5.608038714459519 -8.438517946759298 5.57469231573224 -8.4277759250349 5.546683976880281 -8.431532337539752 C 5.394714025368232 -8.451302929670547 5.249400173206878 -8.438583848733067 5.098550555248905 -8.44998489019516 C 5.075289586291951 -8.44588506865114 5.052753916394706 -8.43840278219265 5.031660051873048 -8.4277759250349 C 5.015294017633892 -8.351321761772976 4.994186570283365 -8.275960031086635 4.968460059028266 -8.202127566848743 C 4.958838370857949 -8.11579598121094 4.9434832109696965 -8.030782435048518 4.926480501737212 -7.947680046125406 C 4.919099480675048 -7.912027078316203 4.911652557639114 -7.867609147995682 4.899526594465563 -7.8224662959636975 C 4.907504678542451 -7.7956555311538125 4.923970627847977 -7.772159176526822 4.946448799789318 -7.75550989061407 C 4.9530918614302415 -7.750988699129122 4.960002209525911 -7.746873300740936 4.967142019552887 -7.743186221519205 C 4.967158100973487 -7.733925104898845 4.9687860094676175 -7.724737456959381 4.971952863638043 -7.716034608326246 C 5.001213339991621 -7.704963076733 5.030605620292737 -7.69343023132337 5.060393312436469 -7.681963287887506 C 5.0951236526129 -7.668782893133644 5.105602066442221 -7.6403132404652965 5.096573496035825 -7.621069864124656 C 5.105536164468453 -7.615995412144418 5.114301126979772 -7.610986862137949 5.123263795412397 -7.605780606210173 C 5.09466233879651 -7.551543281798022 5.06889466705271 -7.494538074487562 5.044576838731827 -7.436346631649252 C 5.063556607177395 -7.016748764659993 4.947239623474546 -6.626806785866926 4.84489385821079 -6.234558237991934 C 4.7699466549379785 -5.985545669983191 4.723257928627143 -5.728890313700626 4.705708889609982 -5.469436322530135 C 4.698064260652747 -5.21762488075756 4.705181673819833 -4.964034085693218 4.682379590895649 -4.7147928208976495 C 4.607251340798623 -3.900837542872779 4.4497456234899495 -3.105664327372166 4.357878272055517 -2.295663167773455 C 4.414095008465429 -2.2266341551668276 4.47679008182218 -2.1631446352627908 4.545105779534159 -2.106063189239121 C 4.582406296687591 -2.0909057352721785 4.620497637526258 -2.0767368109117754 4.658193566522311 -2.062172474708756 C 4.778060950554318 -2.02601297474893 4.895908272988535 -1.9834673855035003 5.011230440004558 -1.9347180574388911 C 5.307789321966497 -1.8350083711259089 5.60988396972506 -1.7479518637766382 5.8989959286510665 -1.6603022386634425 C 6.385484299016187 -1.5123523075513194 6.873817924646845 -1.3718492994751301 7.360635804880811 -1.2253492117859324 C 7.5011388129570005 -1.199515638068359 7.640982801295499 -1.1736820643507855 7.77924514226353 -1.14699176497421 C 8.092147713720257 -1.2634405526245978 8.206883050052646 -1.6172023478183082 8.281220476464439 -1.890300127118369 C 8.595111577527707 -2.3349407441399705 8.7886656744882 -2.824724213193557 9.029010172824911 -3.326963155289544 C 9.213535699379008 -3.7132805255252954 9.323855603468848 -4.1231249003966965 9.519254955694882 -4.505949466022676 C 9.55987502114724 -4.58361729740048 9.604665905522635 -4.659031419030573 9.653431374289216 -4.731861432103899 C 9.74542437914176 -4.93476077796007 9.860857725243863 -5.126191245581007 9.997373775391301 -5.302243015077371 C 10.021427995817099 -5.332360217089946 10.047656981377287 -5.36867220463684 10.075994830098097 -5.406434035606662 C 10.12986385692893 -5.514903709112877 10.200698613873213 -5.614081267673679 10.285826714579615 -5.70022503467029 C 10.282828309141482 -5.714303765740483 10.290760070371979 -5.728417219887274 10.304345169208787 -5.73317602155495 L 10.302368109995715 -5.733703237345105 C 10.317877504059256 -5.745412655696878 10.332163035737377 -5.758660443960978 10.345006687024462 -5.773244421606695 C 10.34612702057854 -5.794333053212877 10.367281554158492 -5.812785605868287 10.401945992361153 -5.808238369678205 C 10.445902608865287 -5.801648172301273 10.489661519448122 -5.795782896635803 10.533749939899792 -5.789654013075257 C 10.666410613097433 -5.977408736344052 10.926393899617402 -6.168919872117696 10.88850026470004 -6.399642682284085 Z M 9.535005527425747 -11.478510094764257 C 9.590100340035734 -11.450207493849838 9.646707448406172 -11.424950999326219 9.704571305934202 -11.40285462887708 C 9.701012599350666 -11.38901521438552 9.697387990793354 -11.375109897920195 9.69264304868196 -11.361138679481098 C 9.634779795900215 -11.35224389840359 9.577877332607851 -11.337946575327416 9.522681858330882 -11.318434200478578 C 9.531403271092676 -11.37133700275032 9.535526566931509 -11.424895749234379 9.535005527425753 -11.47851009476426 Z M 9.52531793728166 -11.080330369250028 C 9.529480389814282 -11.09329855945674 9.52701771005462 -11.107483594872381 9.518727739904726 -11.118289906141152 C 9.551678726789383 -11.124286985754164 9.584629713674046 -11.1293614377344 9.617580700558703 -11.133117850239252 C 9.611586314156021 -11.100341247277157 9.612484069106541 -11.06667543663255 9.62021677950948 -11.034264889585272 C 9.627627839292467 -11.010716409878825 9.6437838213655 -10.990904694635981 9.665359631541461 -10.978907231619042 C 9.58627726301828 -10.820742494572675 9.498759441852622 -10.662248247657459 9.41638197464097 -10.505072040217634 C 9.377565712090844 -10.497361509286623 9.338683547566946 -10.489716880329382 9.299208265279118 -10.483653898742606 C 9.384024105520242 -10.681623427945643 9.462052042463112 -10.880449682807681 9.52531793728166 -11.080330369250028 Z M 9.192117557903977 -10.191049135206825 C 9.202398265811993 -10.217937140504707 9.204573030946385 -10.231776554996266 9.209186169110232 -10.240014301717432 C 9.213381670491763 -10.242175790348169 9.217101480707523 -10.245156120219832 9.220125896755937 -10.248779264228752 C 9.234836596927412 -10.25197513363467 9.249777031698432 -10.254002449267315 9.26480743497154 -10.254842245815528 C 9.272583867876321 -10.255501265553223 9.279964888938483 -10.257873736608918 9.287609517895723 -10.259125874110536 C 9.252220157981602 -10.192235370734675 9.216567190172398 -10.123829121962123 9.183088987497582 -10.054829755425644 C 9.18730671381882 -10.068010150179507 9.191722146061363 -10.081190544933373 9.195939872382597 -10.09397552784462 C 9.200988045008213 -10.110734247261444 9.192410740561925 -10.128575040509723 9.176169280251807 -10.135098359476677 C 9.180354554356414 -10.154052572494571 9.185680335255737 -10.172736820360383 9.192117557903982 -10.191049135206825 Z M 9.75037317770389 -7.003568369906133 C 9.591708407634243 -7.1126276605413885 9.420158208589884 -7.201634544458466 9.239632880991659 -7.268560206432566 C 9.270267284808467 -7.18394869421842 9.292753999197885 -7.096605793773555 9.306786992262595 -7.0077201942536 C 9.256042472460221 -7.024657001512316 9.205956972395537 -7.042714142325109 9.155607864435778 -7.060441773269057 C 9.049769294562248 -7.119753549661445 8.940767429947796 -7.175177109601443 8.829986212041568 -7.22855770835459 C 8.802966402796146 -7.2540617722033165 8.774958063944187 -7.277786482760273 8.746422509302075 -7.301049879500843 C 8.763029806691941 -7.299006918313992 8.77983481000312 -7.297688878838607 8.796376205419218 -7.29538230975668 C 8.79718097307158 -7.316654872452981 8.790382180827255 -7.337518520130596 8.777198731052346 -7.35423277233268 C 8.775485279734344 -7.356209831545762 8.774430848154037 -7.358318694706381 8.772717396836034 -7.360361655893229 C 8.753809018202803 -7.34124380342379 8.726672987459576 -7.332708288299102 8.700225225689781 -7.3375595729690435 C 8.68862647830638 -7.346126829559055 8.676632319080362 -7.35423277233268 8.664901767749424 -7.362536421027615 C 8.662593522671022 -7.368755176970856 8.662158207166867 -7.375514022956396 8.663649630247804 -7.381977503289561 C 8.663649630247804 -7.394367074358195 8.664242748011732 -7.406690743453059 8.664572257880579 -7.419014412547922 C 8.663218870109896 -7.436118719014942 8.67331278536436 -7.452064957475443 8.689351400017841 -7.458160184966897 C 8.69508487173577 -7.474833384330535 8.698709480293083 -7.491111171851558 8.70391573622086 -7.507652567267657 C 8.698939861872159 -7.531082511374586 8.695963570096506 -7.554892845579819 8.695018969762005 -7.578826698938523 C 8.846424489433094 -7.4978862905044386 9.009333697451982 -7.440612480263689 9.178080437491115 -7.408997312534987 C 9.184670634868047 -7.3968054473876625 9.191590342113827 -7.384679484214108 9.197257911857985 -7.372289913145477 C 9.413982689605708 -7.29841650443192 9.619674156108264 -7.195459922147176 9.808696424489744 -7.0662411469607544 C 9.86728327917066 -7.024657001512316 9.809355444227426 -6.961852420510153 9.75037317770389 -7.00389787977498 Z M 6.952043567511028 -7.875978698664389 C 7.121609346019487 -7.81594200056054 7.292163654134487 -7.758343675486154 7.4612681188265615 -7.698043369487227 C 7.5440409978808285 -7.662895650143589 7.626308628469529 -7.625551198340975 7.708071010592663 -7.586010014079385 C 7.481500024773744 -7.665092382602567 7.252754273820435 -7.736266514273433 7.022163267601582 -7.80065274264606 C 6.971418747799207 -7.814755765032693 6.908416460875735 -7.827013532153787 6.840669231840874 -7.838612279537187 C 6.7849161620320295 -7.860359930881064 6.72962440603957 -7.882568896041323 6.67433265004711 -7.904514253306506 C 6.671673161070209 -7.925424736003292 6.670813279891904 -7.946524897224778 6.671762473070109 -7.967582442203745 C 6.701747871135148 -7.931534062551928 6.770615433724088 -7.907875253968741 6.8007985377104365 -7.943923633620559 C 6.826866063471571 -7.974020774493929 6.855534407165109 -8.001762910160444 6.886471103610554 -8.026828316622364 C 6.889502594403943 -8.024653551487976 6.892336379276022 -8.022412884379818 6.895236066121873 -8.020238119245432 C 6.8520043713291985 -7.980894640905146 6.858792274627439 -7.909193293444126 6.952043567511028 -7.876308208533236 Z M 7.443013272092459 -7.889159093418253 C 7.389764477286851 -7.913323150467004 7.335680924146827 -7.936059331417419 7.280762612672396 -7.957367636269499 C 7.234104015243716 -7.97871987577076 7.1900814967658135 -8.001126546852326 7.1482996453960626 -8.024653551487972 C 7.271316663098795 -7.999127520314658 7.3936087590900605 -7.97276673080693 7.515175933369867 -7.94557118296479 C 7.5253391006072246 -7.937790540983192 7.53711650544944 -7.932385995740111 7.549642665651224 -7.929754709260154 C 7.617323992712313 -7.915322177004672 7.693308968468342 -7.900362428959037 7.773709376466908 -7.884743661175708 C 7.860875720439128 -7.863127813779371 7.948085999060529 -7.8401060576092885 8.03534021233111 -7.815678392665461 C 8.029904332911169 -7.812272428460014 8.02411503228354 -7.809466164415323 8.018073895203552 -7.807308841996757 C 8.007793187295535 -7.771458168266245 7.996326243859675 -7.735673396509507 7.984200280686119 -7.700086330674073 C 7.812064325200652 -7.761704676148389 7.620750895348316 -7.8210164525407775 7.443013272092459 -7.889554505260868 Z M 8.129316426926158 -8.19659180105213 C 8.1668146500009 -8.187299622750656 8.203917461233027 -8.176821208921332 8.240690762596305 -8.165683775354319 C 8.210970619753308 -8.098479072455335 8.177573701355271 -8.032961270749574 8.140651566414476 -7.96942769746928 C 8.120880974283684 -7.9760178948462155 8.10111038215289 -7.982608092223148 8.081339790022094 -7.989198289600081 C 7.802388175029824 -8.07959133518586 7.517370420666215 -8.15006396800641 7.2284364454995575 -8.200084605661901 C 7.51988087799914 -8.274499370861225 7.825350619410407 -8.274499370861225 8.116795051909993 -8.200084605661903 C 8.110732070323214 -8.175305463524639 8.104800892683972 -8.150592223361144 8.09854020517589 -8.125813081223878 C 8.109677638742898 -8.149405987833296 8.119035719018141 -8.173196600364022 8.129316426926158 -8.196987212894745 Z M 8.379743927249574 -8.536909593596896 C 8.371110768685792 -8.510548804089169 8.362214002226931 -8.484781132345365 8.353383137741845 -8.458749852706482 C 8.314105561375332 -8.465559723329312 8.275003723605536 -8.471403031670192 8.236077624432458 -8.476279777729122 C 8.24517209681262 -8.502640567236849 8.254398373140333 -8.529594474508501 8.263426943546728 -8.556284773885075 C 8.30217730412308 -8.55114441993107 8.340927664699443 -8.544554222554138 8.37987573119711 -8.537305005439514 Z M 8.491777282657413 -8.661134814152064 L 8.489668419496796 -8.662189245732373 C 8.492765812263961 -8.668779443109305 8.496258616873735 -8.675369640486236 8.49915830371958 -8.681959837863168 C 8.497247146480273 -8.67530373851247 8.494676969503269 -8.668713541135538 8.4922385964738 -8.661530225994682 Z M 8.44307572404189 -8.524388218580725 C 8.433651741792879 -8.498884154732 8.423305131911095 -8.473314188909502 8.413881149662084 -8.447744223087007 L 8.406104716757303 -8.44932587045747 C 8.408543089786766 -8.457563617178636 8.410454247026077 -8.46593316784734 8.41309032597685 -8.474170914568504 C 8.418823797694783 -8.492162153407527 8.423568739806171 -8.509692078430167 8.42870909376018 -8.527353807400345 Z M 8.872690691044086 -8.168978874042784 C 8.873745122624397 -8.17121954115094 8.874931358152244 -8.173460208259097 8.875985789732555 -8.175569071419716 C 9.058424938489965 -8.065654648433075 9.230675022770159 -7.939654042608141 9.390680204870948 -7.79907109527559 C 9.44485162730932 -7.7537305373222996 9.363001375887826 -7.708983097132932 9.309093561344525 -7.7543895570599926 C 9.131306395317745 -7.911526831291907 8.936600292568967 -8.04841125566734 8.72856307441058 -8.16252048061339 C 8.737196232974362 -8.184465837878575 8.745565783643068 -8.206279391196219 8.75327631457408 -8.227961140566325 C 8.754660256023236 -8.231519847149869 8.755780589577311 -8.235210357680952 8.757032727078933 -8.238834966238263 C 8.791697165281592 -8.221964060953317 8.82570258374656 -8.20430233198314 8.858917178526301 -8.185586171432654 C 8.856149295627986 -8.178995974055722 8.853579118650982 -8.171746756941095 8.850811235752673 -8.164827049695317 C 8.85807450394486 -8.167135874321438 8.865564121488617 -8.168660309750697 8.873152004860472 -8.169374285885402 Z M 8.383829849623272 -8.370111697986747 L 8.383829849623272 -8.370111697986747 C 8.383724212780994 -8.369678128611842 8.383569440096972 -8.369258031326636 8.383368535806884 -8.36885956048513 Z M 8.652248588785708 -7.980301523141221 C 8.684804163827753 -7.9601355191678085 8.715953830096051 -7.939222626158345 8.745697587590605 -7.917562844112828 C 8.72915619217451 -7.879141993405315 8.712746600705946 -7.840655240724033 8.697523244765232 -7.802036684095212 C 8.66200208090357 -7.812317392003226 8.626217309146831 -7.822532197937471 8.589707615678627 -7.831956180186483 C 8.610334933468422 -7.881975778277397 8.631621270995911 -7.931468160578157 8.652709902602096 -7.980696934983839 Z M 8.758218962606774 -7.908534273706432 C 8.839056503552143 -7.848868378672593 8.913386389371434 -7.780855980919964 8.97997910434054 -7.705622096470696 C 8.898721970682969 -7.738573083355356 8.811797267281234 -7.7685584814203965 8.721511563217266 -7.795380584744509 C 8.732055879020354 -7.833010611766793 8.74457725403653 -7.870772442736613 8.758680276423162 -7.908929685549048 Z M 8.298157283723157 -8.389157368406082 C 8.307581265972168 -8.387246211166772 8.316939346247414 -8.384873740111075 8.326363328496424 -8.382896680897996 C 8.318125581775256 -8.359962794026274 8.309821933080325 -8.336765299259474 8.301188774516543 -8.314095020282826 C 8.262570217887722 -8.322266865030223 8.223951661258901 -8.329713788066154 8.185333104630079 -8.336106279521779 C 8.196536440170867 -8.36615757956059 8.208069285580498 -8.39614297762563 8.218284091514743 -8.42619427766444 C 8.245699312602778 -8.415254550018734 8.272257808031814 -8.40306268487141 8.298618597539539 -8.3895527802487 Z M 8.52545319125354 -7.6548116746945505 C 8.56060091059718 -7.639654220727608 8.596012237835893 -7.623837747022971 8.631687172969684 -7.60736225358064 C 8.612861136984652 -7.54181807549062 8.601801653075484 -7.474288866741229 8.598736186085027 -7.406163527662907 C 8.561699276826667 -7.429888238219862 8.523607935988 -7.452690321144047 8.484462163569024 -7.4745697764354615 C 8.493260742052044 -7.535824883546129 8.507125735115888 -7.596244511507957 8.525914505069927 -7.655207086537168 Z M 9.372820769979455 -8.327011807141613 C 9.406826188444423 -8.306450391325583 9.405178639100189 -8.279430582080163 9.387055596313628 -8.26433903008699 C 9.421390524647446 -8.234090024126871 9.409594071342736 -8.184202229983496 9.350941314688043 -8.199030174081592 C 9.300064990938129 -8.212210568835456 9.249122765214443 -8.225852277405707 9.197916931595682 -8.240153005713648 C 9.23956697901789 -8.199689193819285 9.278580947489326 -8.160477519426541 9.314102111350993 -8.123967825958337 C 9.410889926729814 -7.992848363570492 9.489189783384875 -7.8490436140921425 9.546801980730454 -7.696593526064296 C 9.383425653134639 -7.910813855738687 9.202421256214626 -8.110996650578613 9.005680874110563 -8.295049349863497 L 8.94386482271495 -8.312908784754974 C 8.947291725350956 -8.319960295948292 8.95078452996073 -8.327143611089149 8.954277334570504 -8.334129220308697 C 8.955595374045888 -8.33762202491847 8.957045217468814 -8.341246633475784 8.958165551022898 -8.345003045980633 C 8.964096728662133 -8.369979894039204 8.969302984589909 -8.401283331579634 8.9740479267013 -8.434234318464293 C 8.984855850399471 -8.426853297402129 8.995795578045175 -8.42006539410389 9.006537599769574 -8.412486667120417 C 9.009371384641657 -8.435222848070833 9.036522997834613 -8.454400322437703 9.07764582946667 -8.441615339526457 C 9.18037855377043 -8.41539611763162 9.279622928498833 -8.377034604974678 9.373282083795837 -8.327341317010463 Z M 8.949993706275496 -8.450248498090241 C 8.93608838981017 -8.407609921061493 8.921392249659615 -8.365498559822896 8.907355129246751 -8.32345310055807 C 8.870318219988391 -8.3341292203087 8.833281310730031 -8.34458566681343 8.796244401471677 -8.354822440072265 C 8.804416246219072 -8.379996994052146 8.812675960264826 -8.405193515356615 8.82102354360894 -8.430412003985674 L 8.873745122624397 -8.415649961861348 C 8.859246688395146 -8.428303140825058 8.84349611666428 -8.439967790182227 8.828272760723564 -8.452159655329552 C 8.835214435293937 -8.473160417637374 8.84224397916266 -8.494227081918968 8.849361392329747 -8.515359648174329 C 8.883432712768485 -8.494864134332072 8.916976817417066 -8.473050581014427 8.950455020091884 -8.45057800795909 Z M 8.441362272723886 -8.720446590544453 C 8.43780356614034 -8.710165882636439 8.434266826881391 -8.699885174728424 8.430752054947025 -8.68960446682041 C 8.279216531649173 -8.755619983226145 8.121359933525634 -8.806052836788064 7.959618844470157 -8.840124574909538 C 8.125033407250948 -8.822339616612663 8.287257414907264 -8.782121719948927 8.441823586540274 -8.72057839449199 Z M 8.238054683645537 -8.560041186389928 C 8.223819857311364 -8.5336803968822 8.208794207291959 -8.50731960737447 8.193768557272552 -8.480958817866744 C 8.136763349962088 -8.486955897479753 8.080021750546706 -8.491371329722297 8.023939170869015 -8.492030349459991 C 8.074660088169068 -8.479252558203187 8.124571139777776 -8.463451793187732 8.173404847377833 -8.444712732293617 C 8.1726140236926 -8.443262888870695 8.171823200007367 -8.44181304544777 8.170966474348365 -8.440363202024844 C 8.164771688814051 -8.407412215140186 8.157061157883039 -8.375054346019446 8.149746038794646 -8.342366967029868 C 7.96962817381249 -8.363534662836216 7.790744263942425 -8.39413322636662 7.613831188102511 -8.434036612542993 C 7.322149052199529 -8.423162786871053 7.050171606453543 -8.35772212691812 6.864064432528984 -8.234749043864566 C 6.85279519501443 -8.234749043864566 6.841328251578566 -8.236001181366184 6.830322621959091 -8.236001181366184 C 6.761916373186538 -8.236396593208799 6.731469661305112 -8.195273761576745 6.757171431075146 -8.147758438489065 C 6.7247112147947385 -8.115810401420664 6.696733515052838 -8.079607878696004 6.6740031401782645 -8.040140515323763 C 6.674464453994649 -8.049169085730162 6.674728061889729 -8.057736342320172 6.675255277679883 -8.067555736411801 C 6.6879743586173594 -8.434432024385606 6.992111967562772 -8.532757769249429 7.43121681878775 -8.542643065314829 C 7.50772901033393 -8.544422418606601 7.579364455821181 -8.543565692947599 7.6486933322265065 -8.541193221891904 C 7.8423439737456695 -8.584664884536096 8.042471145870884 -8.591104730968727 8.238515997461924 -8.560172990337469 Z M 7.643025762482347 -8.749311655055415 C 7.7155179336286 -8.745093928734178 7.742999056690406 -8.65928955888652 7.670111473701539 -8.663639089155298 C 7.233313191558488 -8.689999878663025 6.530007327492303 -8.64874524308343 6.456987940555897 -8.284900445903016 C 6.446641330674114 -8.233958220179332 6.33177419039419 -8.254124224152742 6.342648016066127 -8.30572546961412 C 6.425420895120394 -8.71398819711506 7.14375240920598 -8.779824268910609 7.643487076298735 -8.749443459002954 Z M 6.388911201652192 -8.665747952315915 C 6.613027091340801 -8.801471600407293 6.86219897503792 -8.8906328627395 7.121543444045719 -8.927906003970271 C 7.071128434112195 -8.905762940783779 7.022690483391742 -8.881774622331747 6.976229591884374 -8.855413832824018 C 6.805082446635598 -8.824356697050103 6.642209500213499 -8.758233736159358 6.497847164292879 -8.661200716125833 C 6.415008383264843 -8.601888939733445 6.326106620650032 -8.455454754018016 6.275098492952579 -8.287075211037404 C 6.240083818187886 -8.288662109158619 6.206638548789029 -8.272447723549387 6.1861967303377705 -8.24397532019227 C 6.169998681949258 -8.195894588148828 6.138197223477756 -8.15460604250384 6.09584512430003 -8.126669806882878 C 6.045759624235349 -8.144331535853059 5.995542320223127 -8.160741127321618 5.9450614083158255 -8.176557601026257 C 6.091429692057479 -8.342630574924943 6.2326576218451315 -8.514700628436636 6.389372515468574 -8.665879756263458 Z M 5.613047264465989 -7.367808578929162 C 5.653181566491503 -7.3505422618016 5.69430439812356 -7.334264474280579 5.73496591593923 -7.31752537294317 C 5.707880204720041 -7.186248641194686 5.645141525691649 -7.006599860699519 5.672424942832145 -6.842042632197527 C 5.661023901370054 -6.805401134781785 5.6487661342489615 -6.768957343287351 5.635849347390173 -6.7324476498191475 C 5.573440178230626 -6.664107303020362 5.511690028808773 -6.595437446352731 5.448358232016455 -6.527756119291641 C 5.506945086697381 -6.807180488073559 5.563159470322613 -7.087066170671862 5.6135085782823735 -7.367940382876703 Z M 5.029551188712431 -3.24893521834667 C 5.001689326849057 -3.239706106900675 4.974908815765452 -3.227486946315498 4.949677996504016 -3.212491426852237 C 4.914201801354355 -3.2598692588442066 4.889342611722499 -3.314330214068418 4.876790413515149 -3.3721719092952984 L 4.874879256275839 -3.3721719092952984 C 4.873970276649841 -3.378931760761496 4.872289802147656 -3.38556521274381 4.869870706269369 -3.3919425014260938 C 4.876856315488917 -3.543121629252914 4.883885859357645 -3.694322724404323 4.89095933787555 -3.8455457868803222 C 4.9700417063987326 -4.18296389257924 5.038052543328674 -4.522820371307622 5.101845653937372 -4.855032221078764 C 5.181455238250714 -5.270741871615634 5.270686510734371 -5.684144953070578 5.35886335163772 -6.0978775443943665 C 5.394809378926764 -6.123489947941695 5.42904164071542 -6.151426115279191 5.461340920849012 -6.181507149107635 C 5.457518606370392 -6.159759497763758 5.452114644521309 -6.138011846419884 5.449610369518073 -6.1160664891547 C 5.425165936092445 -5.927710052187215 5.434967134350007 -5.73648621830116 5.47854133600281 -5.551616083820475 C 5.378841187357202 -5.285364298563618 5.299874995325337 -5.011802847596092 5.242348662013565 -4.733377177500598 C 5.138618955300654 -4.279642088098836 4.870397922059523 -3.7609276525605164 5.030012502528813 -3.2489352183466718 Z M 5.969115628741625 -2.078911576046165 C 5.775034315990979 -2.1448135498154848 5.581612022978024 -2.2126266808241155 5.39010088720438 -2.285514263812983 C 5.408289831964713 -2.2875572249998317 5.425951560934889 -2.29052281381945 5.443547387931297 -2.294279226324301 C 5.517050389494122 -2.2449599249404564 5.5973505262075465 -2.2066192182487008 5.6819148270549285 -2.1804665176246854 C 5.776518390010789 -2.1497460535356474 5.874596751771561 -2.130993825000349 5.973860570853012 -2.124647545842075 C 5.971422197823549 -2.1093582879275914 5.97030186426947 -2.09400312803934 5.969576942558005 -2.078911576046165 Z M 6.182506219806682 -6.221970961001997 C 6.162406117807039 -6.147633534590204 6.141383388174625 -6.0734279121259505 6.120953776306136 -5.999090485714157 C 6.109552734844042 -5.989007483727451 6.098217595355719 -5.978792677793206 6.087080161788704 -5.968446067911423 C 6.0881345933690145 -5.972861500153966 6.089189024949321 -5.977013324501435 6.090111652582093 -5.981626462665288 C 6.1352511688741735 -6.157366360033177 6.199331649975832 -6.327687859457854 6.281227376513119 -6.489598876479207 C 6.2374684659302915 -6.369789088166583 6.192852829688465 -6.258480654470203 6.1829675336230645 -6.221970961001999 Z M 6.368679295705009 -6.851268908525233 C 6.38607741678011 -6.830048472971511 6.368679295705009 -6.75083430050079 6.338562093692431 -6.655276438535275 C 6.30610942098561 -6.692528391040059 6.259629514197569 -6.714610524465297 6.210250950763566 -6.716235764271897 C 6.230944170527133 -6.808828037417791 6.253350841608701 -6.900761290825993 6.2761529245328855 -6.992299132391576 C 6.286433632440899 -6.989004033703109 6.296318928506295 -6.985708935014645 6.306665538388082 -6.982545640273718 C 6.334673877240044 -6.970880990916548 6.362550412144466 -6.959216341559378 6.390361045075117 -6.946958574438285 C 6.370691435173158 -6.941335279725922 6.355688812979161 -6.925379749550577 6.35128589908354 -6.905401527749195 C 6.34688298518792 -6.885423305947816 6.35378877845019 -6.864639474845469 6.369272413468931 -6.851268908525235 Z M 6.550107429491947 -5.941821670508619 C 6.539760819610164 -5.668723891208557 6.43662423066118 -5.390288052033181 6.299152713378377 -5.124307685900206 L 6.324261365384485 -5.231859707091736 C 6.387197750334185 -5.505352898234414 6.452045292523198 -5.778384775560706 6.508325578122197 -6.0537891239426935 C 6.524498362960212 -6.027994742574438 6.538728573099793 -6.00103223915208 6.550898253177178 -5.973125108049047 C 6.550964155150946 -5.962778498167263 6.550898253177178 -5.952365986311711 6.5505687433083315 -5.941953474456159 Z M 6.589055495989617 -6.485117542262891 C 6.608826088120412 -6.584959032523411 6.637691152631374 -6.744507711018934 6.573898042022671 -6.8535754776071585 C 6.620195820197351 -6.809204719473577 6.65619041492054 -6.755212827388798 6.679341200053584 -6.6954107405607886 C 6.63686205102844 -6.631405741764146 6.606421791968623 -6.560184915541294 6.589516809805996 -6.485249346210432 Z M 7.396815988480169 -3.1307070774045123 C 7.337504212087783 -3.0446390996617794 7.284123613334633 -2.9559350429682762 7.2334449955060265 -2.86624245666823 C 7.211963963915416 -2.8815430749553173 7.188537912826507 -2.8939099023040473 7.163786609231853 -2.9030157580315112 C 7.267548015043779 -3.106674113132419 7.385266020632648 -3.3029148287717778 7.516098561002634 -3.4903341482636865 C 7.5136601879731755 -3.4721452035033593 7.51405559981579 -3.4542857686118715 7.51333067810433 -3.4362286277990783 C 7.5097325608500585 -3.421002221862013 7.506895259183915 -3.4056060112705318 7.504829323488086 -3.390097246160554 C 7.503799871777955 -3.368729940011601 7.509592879734381 -3.3475889229275726 7.521370718904183 -3.329731038187857 C 7.52249105245826 -3.3241293704174666 7.522293346536955 -3.3183299967257653 7.52367728798611 -3.312728328955373 C 7.48182953464259 -3.252164415061369 7.439125055640071 -3.191600501167363 7.397343204270323 -3.1310365872733588 Z M 7.31529524692752 -3.6111324661828537 C 7.425417445096052 -3.8784308717912133 7.525258935356572 -4.14928798398312 7.632349642731716 -4.406635191552313 C 7.748061750206143 -4.674713384142398 7.879591979132123 -4.935683266162346 8.026245739950927 -5.188166698482651 C 8.048574829790166 -5.180073309730437 8.071777679594504 -5.17463203132065 8.095376910434954 -5.171954812935425 C 8.03436557502312 -5.082314301438331 7.982232510305315 -4.9869430175070795 7.93971644839182 -4.887192384278195 C 7.916881595371586 -4.817643586946274 7.950358166630769 -4.742093569835835 8.01721716954454 -4.7122885458944195 C 7.867553787114418 -4.437806825145202 7.740033467870785 -4.155548671491205 7.54891774393976 -3.89741064023678 C 7.4756347491082735 -3.799282601294262 7.396222870716246 -3.7048450728828257 7.315756560743904 -3.6114619760517 Z M 8.3637956495974 -2.6837598913009835 C 8.243921078399083 -2.416662899137002 8.090160201562433 -2.1661093066886963 7.906304147690785 -1.9382767640224419 C 7.844017587994723 -1.8673404727417182 7.776164424947277 -1.8014927133439365 7.70339197045504 -1.7413616663997047 L 7.702337538874733 -1.7413616663997047 C 7.9572463734144625 -2.2224460749157444 8.275025690930125 -2.6817828320879045 8.575670495265761 -3.1441510800534527 C 8.504496363594898 -2.991719814725016 8.432399604291259 -2.838761333606424 8.36425696341378 -2.6840894011698317 Z M 8.26810598368435 -6.3135088025675845 C 8.262372511966417 -6.31871505849536 8.255255098799328 -6.323064588764135 8.249060313265014 -6.3281390407443725 C 8.31614852256218 -6.305402859793958 8.383104927911813 -6.283787012397621 8.450193137208979 -6.26151214526359 C 8.41714942660647 -6.232049045381302 8.389845337955975 -6.1967235427983 8.369660925262872 -6.1573211247342945 C 8.34784511396478 -6.167378288116593 8.322957797921934 -6.168490173909382 8.300332048857546 -6.160418517501454 L 8.298552695565775 -6.159693595789991 C 8.29735696224716 -6.168422642502154 8.295145229290071 -6.176982049046093 8.291962498188841 -6.1851976596387175 C 8.321881994280112 -6.218807666261072 8.323200033755498 -6.265334459742212 8.26856729750073 -6.31383831243643 Z M 8.576988534741147 -3.7122260939449916 C 8.482089692513325 -3.5492505128134617 8.376910142377493 -3.3887133047114 8.267249258025343 -3.2289010183207996 C 8.265074492890957 -3.2466286492647463 8.264349571179498 -3.264158574287384 8.261054472491029 -3.2820839111526396 C 8.28187949620213 -3.3258428217354687 8.302243206096854 -3.3699312421871426 8.323463641650575 -3.413887858691279 C 8.342838821938756 -3.4534290429528713 8.36300482591217 -3.492970227214462 8.38277541804296 -3.5325114114760545 C 8.466905397006265 -3.6120024103118826 8.545697662912644 -3.696958921664976 8.618638582163364 -3.786827128251865 C 8.604667363724264 -3.7617843782195184 8.591223361075318 -3.7367416281871773 8.576988534741147 -3.7122260939449916 Z M 9.013720914910431 -4.8794159513734146 C 9.029603290588835 -4.928117509988943 9.044563038634472 -4.977148578473316 9.059390982732568 -5.026311450905228 C 9.090562616325455 -5.0777149904452985 9.121009328206881 -5.129382137880444 9.151653746009613 -5.180719775446745 C 9.110003698587409 -5.078374010182991 9.064992650502964 -4.9772803824208545 9.013720914910431 -4.879350049399645 Z M 9.4401725871717 -5.220656371550953 C 9.446762784548634 -5.27028055779925 9.452364452319024 -5.320366057863934 9.45579135495503 -5.371571891482695 C 9.468971749708892 -5.573034225295506 9.576062457084037 -5.732648805764799 9.665689141410313 -5.906036898751879 C 9.735215723736948 -5.888968287545626 9.804544600142274 -5.871504264496756 9.874598398259058 -5.8548310651331175 C 9.745957745461341 -5.636761433930439 9.590890401182133 -5.42923611853085 9.440304391119241 -5.220656371550953 Z M 9.952626335201934 -6.305205153872651 C 9.793276777823278 -6.245810667954109 9.61774133847433 -6.2465369891793925 9.458888747722185 -6.307248115059499 C 9.284116713285949 -6.347250613137477 9.110003698587409 -6.41183454743141 8.93826315494456 -6.464885636315712 C 8.548716587994111 -6.585288542392259 8.162596923679665 -6.708722939262195 7.7807608876602234 -6.852059732210466 C 7.330057289051846 -7.020834687033695 6.909734500351126 -7.247471574826386 6.459360411611591 -7.418157686888924 C 6.158913313197263 -7.53203629756231 5.496532574841828 -7.651318870084779 5.594528809836809 -7.960992244826812 C 5.59709898681381 -7.960069617194041 5.599866869712124 -7.959344695482579 5.602502948662894 -7.958487969823577 C 5.583259572322256 -7.935554082951852 5.589322553909032 -7.8968696243492635 5.633147366465628 -7.871365560500536 C 6.302777321935687 -7.477337659333772 7.1241795229964895 -7.319831942025098 7.856482255521173 -7.040209867321874 C 8.514095811941552 -6.78186988217717 9.193930699482966 -6.584133423112268 9.887515185117838 -6.449464574453693 C 9.920466172002504 -6.430418904034358 9.952692237175697 -6.411702743483871 9.985181910243977 -6.392722975038306 C 9.975955633916271 -6.364253322369961 9.964554592454176 -6.334795140095075 9.952626335201934 -6.305205153872651 Z M 10.400364344990692 -6.399444976362778 C 10.38759472999401 -6.363437753776161 10.368242217035103 -6.330118357908113 10.343293235706458 -6.301185133472723 C 10.35870800490974 -6.339922058172516 10.361836988558139 -6.382462431451073 10.35225590413909 -6.423037882972196 C 10.35495315636808 -6.439367316575969 10.356034781074442 -6.4559227967753685 10.355485100853782 -6.472464363299186 C 10.378243174449727 -6.467369090723784 10.40128341584503 -6.463628077316716 10.424484467390261 -6.4612610277583995 C 10.416312622642867 -6.439117964571908 10.407086346315161 -6.417633921123109 10.400364344990692 -6.399444976362777 Z" fill="#e9c3ad" transform="matrix(1,0,0,1,0,0)" fill-rule="nonzero"></path></g><g clip-path="url(#SvgjsClipPath1000582382b9-ea83-4968-a4fa-d8f735f42406)"><path d=" M 6.9761636899105985 -9.408858608538768 C 6.829136386431246 -9.411692393410851 6.683558926374818 -9.410308451961694 6.542594604482241 -9.400027744053682 C 6.468220037734181 -9.369993213537505 6.395901306984089 -9.335099701136016 6.326106620650025 -9.29557311562931 C 6.3722380022885465 -9.305524313668478 6.419094305638536 -9.313564354468333 6.466609628726214 -9.320352257766574 C 6.6325507986773635 -9.356334735444621 6.802402152405491 -9.385836852368687 6.9761636899105985 -9.408858608538768 Z" fill="#e9c3ad" transform="matrix(1,0,0,1,0,0)" fill-rule="nonzero"></path></g><g clip-path="url(#SvgjsClipPath1000582382b9-ea83-4968-a4fa-d8f735f42406)"><path d=" M 5.631763425016473 -1.657929767607751 C 5.777209081125362 -1.5950592846318195 5.923445560919483 -1.5351543904755083 6.072120413743071 -1.4793354186928944 C 6.238984211326986 -1.441309979827997 6.4071001464125255 -1.406843247546643 6.575281983471829 -1.3732332409242893 C 6.266531236362563 -1.4641120627521804 5.957978195174607 -1.5553203944489198 5.65074319346204 -1.6519326879947425 C 5.644350702006411 -1.6540415511553608 5.638221818445867 -1.6560186103684416 5.631763425016473 -1.657929767607751 Z" fill="#e9c3ad" transform="matrix(1,0,0,1,0,0)" fill-rule="nonzero"></path></g><g clip-path="url(#SvgjsClipPath1000582382b9-ea83-4968-a4fa-d8f735f42406)"><path d=" M 9.33558615479979 -9.33432347620567 C 9.419278221954816 -9.45314740609377 9.483008969582876 -9.584838325747137 9.524263505701358 -9.724199553024965 C 9.457043492456645 -9.594504468646942 9.391998244346327 -9.46494118821646 9.33558615479979 -9.33432347620567 Z" fill="#e9c3ad" transform="matrix(1,0,0,1,0,0)" fill-rule="nonzero"></path></g><g clip-path="url(#SvgjsClipPath1000582382b9-ea83-4968-a4fa-d8f735f42406)"><path d=" M 9.161539042075015 -10.91063278679403 C 9.17663059406819 -10.951887422373623 9.19000869474336 -10.993076155979448 9.202793677654608 -11.034330791559043 C 9.204309423051301 -11.044677401440827 9.206615992133228 -11.05489220737507 9.207538619765998 -11.064909307388008 C 9.141636645996678 -10.937982105908299 9.073362201171664 -10.811252610349896 9.005351364241726 -10.685709350319343 C 8.990918831986246 -10.61222864956655 8.972400377357065 -10.538154831049834 8.952036667462345 -10.464344620428196 C 8.983603712897846 -10.515945865889572 9.014577640569428 -10.568272033062414 9.043640411001698 -10.620730004182791 C 9.085817674214066 -10.717144591807306 9.126017878213354 -10.813493277458052 9.161539042075015 -10.91063278679403 Z" fill="#e9c3ad" transform="matrix(1,0,0,1,0,0)" fill-rule="nonzero"></path></g></g></g><defs><clipPath id="SvgjsClipPath1002"><path d=" M 1.020470516429624 -12.602270551478703 h 13.192850226906376 v 12.352270551478703 h -13.192850226906376 Z"></path></clipPath><clipPath id="SvgjsClipPath1000582382b9-ea83-4968-a4fa-d8f735f42406"><path d=" M 1.020470516429624 -12.602270551478702 L 14.213320743336 -12.602270551478702 L 14.213320743336 -0.25000000000000355 L 1.020470516429624 -0.25000000000000355 Z"></path></clipPath></defs></svg>